<svg width="15" height="14" viewBox="0 0 15 14" fill="none" xmlns="http://www.w3.org/2000/svg">
<path d="M4.57153 1.5238L5.09038 0.668938L4.57153 0.35403L4.05268 0.668938L4.57153 1.5238ZM7.57153 3.34461L7.05268 4.19948L7.57153 4.51439L8.09038 4.19948L7.57153 3.34461ZM1.57153 3.34461L1.05268 2.48975L0.571533 2.78177V3.34461H1.57153ZM1.57153 7.24635H0.571533V7.70787L0.922736 8.00731L1.57153 7.24635ZM7.57153 12.362L6.92274 13.1229L7.57153 13.6761L8.22033 13.1229L7.57153 12.362ZM13.5715 7.24635L14.2203 8.00731L14.5715 7.70787V7.24635H13.5715ZM13.5715 3.34461H14.5715V2.78177L14.0904 2.48975L13.5715 3.34461ZM10.5715 1.5238L11.0904 0.668938L10.5715 0.35403L10.0527 0.668938L10.5715 1.5238ZM4.05268 2.37867L7.05268 4.19948L8.09038 2.48975L5.09038 0.668938L4.05268 2.37867ZM2.09038 4.19948L5.09038 2.37867L4.05268 0.668938L1.05268 2.48975L2.09038 4.19948ZM2.57153 7.24635V3.34461H0.571533V7.24635H2.57153ZM8.22033 11.601L2.22033 6.48538L0.922736 8.00731L6.92274 13.1229L8.22033 11.601ZM8.22033 13.1229L14.2203 8.00731L12.9227 6.48538L6.92274 11.601L8.22033 13.1229ZM14.5715 7.24635V3.34461H12.5715V7.24635H14.5715ZM14.0904 2.48975L11.0904 0.668938L10.0527 2.37867L13.0527 4.19948L14.0904 2.48975ZM10.0527 0.668938L7.05268 2.48975L8.09038 4.19948L11.0904 2.37867L10.0527 0.668938Z" fill="white"/>
</svg>
